# xmcd CD database file
#
# Track frame offsets:
#	150
#	54844
#	62770
#	71930
#	79500
#	88900
#	99955
#	106935
#	114390
#	119939
#	129350
#	140706
#	149327
#	163768
#
# Disc length: 3395 seconds
#
# Revision: 1
# Processed by: cddbd v1.5.2PL0 Copyright (c) Steve Scherf et al.
# Submitted via: CDex 1.51
#
DISCID=cb0d410e
DTITLE=Muzio Clementi - Fantaisie Op.48 - 12 Montferrines Op.49 - Black Joke WO2  (Pietro Spada, piano)
DYEAR=1900
DGENRE=Classique
TTITLE0=Fantaisie avec variations sur ''Au clair de la lune'' Op.48
TTITLE1=Montferrina  N°01  en sol majeur
TTITLE2=Montferrina  N°02  en do majeur
TTITLE3=Montferrina  N°03  en mi majeur
TTITLE4=Montferrina  N°04  en do majeur
TTITLE5=Montferrina  N°05  en la majeur
TTITLE6=Montferrina  N°06  en ré mineur
TTITLE7=Montferrina  N°07  en ré majeur
TTITLE8=Montferrina  N°08  en si bémol majeur
TTITLE9=Montferrina  N°09  en sol majeur
TTITLE10=Montferrina  N°10  en do majeur
TTITLE11=Montferrina  N°11  en fa mineur
TTITLE12=Montferrina  N°12  en do majeur
TTITLE13=Black Joke WO2 - Variatins sur un thème traditionnel irlandais
EXTD=
EXTT0=
EXTT1=
EXTT2=
EXTT3=
EXTT4=
EXTT5=
EXTT6=
EXTT7=
EXTT8=
EXTT9=
EXTT10=
EXTT11=
EXTT12=
EXTT13=
PLAYORDER=
